<svg width="26" height="22" viewBox="0 0 26 22" fill="none" xmlns="http://www.w3.org/2000/svg">
<path d="M12.8739 0.168457C9.56011 0.17239 6.38337 1.29617 4.04016 3.29342C1.69696 5.29067 0.378516 7.99839 0.373901 10.8229C1.05995 24.9562 24.6879 24.9512 25.3739 10.8229C25.3693 7.99839 24.0508 5.29067 21.7076 3.29342C19.3644 1.29617 16.1877 0.17239 12.8739 0.168457ZM12.8739 19.9907C10.0222 19.9881 7.28823 19.0214 5.27179 17.3026C3.25535 15.5839 2.12117 13.2536 2.11809 10.8229C2.69948 -1.33804 23.0483 -1.33804 23.6297 10.8229C23.6266 13.2536 22.4925 15.5839 20.476 17.3026C18.4596 19.0214 15.7256 19.9881 12.8739 19.9907Z" fill="white"/>
<path d="M18.8626 5.71877C18.782 5.64924 18.686 5.59405 18.5802 5.55637C18.4745 5.5187 18.361 5.4993 18.2463 5.4993C18.1316 5.4993 18.0181 5.5187 17.9123 5.55637C17.8066 5.59405 17.7106 5.64924 17.63 5.71877L12.8742 9.77242L8.1184 5.71877C8.03856 5.64573 7.94228 5.58716 7.83531 5.54653C7.72833 5.5059 7.61285 5.48405 7.49575 5.48229C7.37866 5.48053 7.26234 5.49889 7.15375 5.53628C7.04516 5.57366 6.94652 5.62931 6.86371 5.6999C6.78089 5.77048 6.71561 5.85456 6.67175 5.94712C6.62789 6.03968 6.60635 6.13882 6.60841 6.23863C6.61048 6.33843 6.63611 6.43687 6.68377 6.52805C6.73144 6.61923 6.80016 6.70129 6.88584 6.76935L11.6417 10.823L6.88584 14.8767C6.7318 15.0176 6.64793 15.2039 6.65192 15.3965C6.65591 15.5891 6.74743 15.7728 6.90721 15.909C7.067 16.0452 7.28256 16.1232 7.50849 16.1266C7.73442 16.13 7.95308 16.0585 8.1184 15.9272L12.8742 11.8736L17.63 15.9272C17.7953 16.0585 18.014 16.13 18.2399 16.1266C18.4659 16.1232 18.6814 16.0452 18.8412 15.909C19.001 15.7728 19.0925 15.5891 19.0965 15.3965C19.1005 15.2039 19.0166 15.0176 18.8626 14.8767L14.1068 10.823L18.8626 6.76935C18.9441 6.70067 19.0089 6.61887 19.0531 6.5287C19.0973 6.43853 19.1201 6.34178 19.1201 6.24406C19.1201 6.14633 19.0973 6.04958 19.0531 5.95941C19.0089 5.86924 18.9441 5.78744 18.8626 5.71877Z" fill="white"/>
</svg>
