<svg width="41" height="40" viewBox="0 0 41 40" fill="none" xmlns="http://www.w3.org/2000/svg">
<g clip-path="url(#clip0_57_5472)">
<path d="M26.3114 14.9221H33.3427V18.8284H26.3114V14.9221Z" fill="#F2B10B"/>
<path d="M7.40515 21.1721H14.4364V25.0784H7.40515V21.1721Z" fill="#F2B10B"/>
<path d="M7.40515 14.9221H14.4364V18.8284H7.40515V14.9221Z" fill="#F2B10B"/>
<path d="M16.7802 16.4846H23.9677V23.5159H16.7802V16.4846Z" fill="#F2B10B"/>
<path d="M26.3114 21.1721H33.3427V25.0784H26.3114V21.1721Z" fill="#F2B10B"/>
<path d="M15.6083 12.5784C16.2555 12.5784 16.7802 13.1031 16.7802 13.7502V14.1409H19.202V11.4065C19.202 11.0956 19.3255 10.7976 19.5453 10.5779L19.8886 10.2346H7.40515V12.5784H15.6083Z" fill="#F2B10B"/>
<path d="M21.5458 11.8919V14.1409H23.9677V13.7502C23.9677 13.1031 24.4923 12.5784 25.1395 12.5784H33.3427V10.2346H23.203L21.5458 11.8919Z" fill="#F2B10B"/>
<path d="M25.1397 27.4221C24.4925 27.4221 23.9679 26.8974 23.9679 26.2502V25.8596H21.546V28.594C21.546 28.9049 21.4225 29.2029 21.2027 29.4226L20.8595 29.7659H33.3429V27.4221H25.1397Z" fill="#F2B10B"/>
<path d="M19.202 28.1086V25.8596H16.7802V26.2502C16.7802 26.8974 16.2555 27.4221 15.6083 27.4221H7.40515V29.7659H17.5448L19.202 28.1086Z" fill="#F2B10B"/>
<path d="M34.5145 3.20337H6.23328C3.00242 3.20337 0.373901 5.83188 0.373901 9.06274V30.9377C0.373901 34.1686 3.00242 36.7971 6.23328 36.7971H34.5145C37.7454 36.7971 40.3739 34.1686 40.3739 30.9377V9.06274C40.3739 5.83188 37.7454 3.20337 34.5145 3.20337ZM35.6864 30.9377C35.6864 31.5849 35.1617 32.1096 34.5145 32.1096H6.23328C5.58609 32.1096 5.0614 31.5849 5.0614 30.9377V9.06274C5.0614 8.41556 5.58609 7.89087 6.23328 7.89087H34.5145C35.1617 7.89087 35.6864 8.41556 35.6864 9.06274V30.9377Z" fill="#F2B10B"/>
</g>
<defs>
<clipPath id="clip0_57_5472">
<rect width="40" height="40" fill="white" transform="translate(0.373901 0.000244141)"/>
</clipPath>
</defs>
</svg>
