<svg width="26" height="22" viewBox="0 0 26 22" fill="none" xmlns="http://www.w3.org/2000/svg">
<path d="M20.9094 10.9444C20.4163 10.9444 20.0165 11.2842 20.0165 11.7034V19.2935C20.0165 19.7127 19.6168 20.0526 19.1237 20.0526H3.05245C2.55932 20.0526 2.15958 19.7127 2.15958 19.2935V4.11323C2.15958 3.69402 2.55932 3.3542 3.05245 3.3542H13.7666C14.2598 3.3542 14.6595 3.01438 14.6595 2.59517C14.6595 2.17596 14.2598 1.83618 13.7666 1.83618H3.05245C1.57313 1.83618 0.373901 2.85565 0.373901 4.11323V19.2935C0.373901 20.5511 1.57313 21.5706 3.05245 21.5706H19.1237C20.6031 21.5706 21.8023 20.5511 21.8023 19.2935V11.7034C21.8023 11.2842 21.4025 10.9444 20.9094 10.9444Z" fill="white"/>
<path d="M24.3726 1.16951C23.7315 0.624439 22.8619 0.318282 21.9553 0.318371C21.0481 0.316148 20.1776 0.622838 19.5384 1.17L7.77769 11.1669C7.68013 11.2505 7.60652 11.3521 7.56252 11.4637L5.77684 16.0178C5.62099 16.4155 5.87394 16.8453 6.34179 16.9778C6.43256 17.0035 6.52762 17.0166 6.62325 17.0167C6.71909 17.0166 6.81436 17.0035 6.90539 16.978L12.2625 15.46C12.3941 15.4226 12.5136 15.3597 12.6116 15.2763L24.3722 5.27856C25.707 4.14395 25.7072 2.30425 24.3726 1.16951Z" fill="white"/>
</svg>
