<svg width="66" height="65" viewBox="0 0 66 65" fill="none" xmlns="http://www.w3.org/2000/svg">
<circle cx="32.8738" cy="32.5002" r="32.5" fill="#009933" fill-opacity="0.2"/>
<g clip-path="url(#clip0_1_13090)">
<path d="M33.3738 6.00024C19.0378 6.00024 7.37378 17.6632 7.37378 32.0002C7.37378 46.3372 19.0378 58.0002 33.3738 58.0002C47.7098 58.0002 59.3738 46.3372 59.3738 32.0002C59.3738 17.6632 47.7098 6.00024 33.3738 6.00024ZM33.3738 56.0002C20.1408 56.0002 9.37378 45.2332 9.37378 32.0002C9.37378 18.7672 20.1408 8.00024 33.3738 8.00024C46.6068 8.00024 57.3738 18.7672 57.3738 32.0002C57.3738 45.2332 46.6068 56.0002 33.3738 56.0002Z" fill="#009933"/>
<path d="M45.6257 21.3362L30.2567 38.6262L20.9977 31.2192C20.5677 30.8742 19.9367 30.9452 19.5927 31.3752C19.2477 31.8072 19.3177 32.4362 19.7487 32.7812L29.7487 40.7812C29.9327 40.9282 30.1537 41.0002 30.3737 41.0002C30.6497 41.0002 30.9247 40.8862 31.1217 40.6642L47.1217 22.6642C47.4887 22.2522 47.4517 21.6192 47.0387 21.2532C46.6247 20.8852 45.9937 20.9222 45.6257 21.3362Z" fill="#009933"/>
</g>
<defs>
<clipPath id="clip0_1_13090">
<rect width="52" height="52" fill="white" transform="translate(7.37378 6.00024)"/>
</clipPath>
</defs>
</svg>
