<svg width="31" height="30" viewBox="0 0 31 30" fill="none" xmlns="http://www.w3.org/2000/svg">
<path d="M23.168 10.7501L23.0885 10.2734C22.8767 9.05528 21.7909 8.12842 20.5728 8.12842C20.4404 8.12842 20.2815 8.12842 20.1491 8.1549L8.76195 10.0616C7.35843 10.2999 6.43157 11.624 6.6699 13.001L7.78213 19.6744C7.99399 20.8926 9.07973 21.8194 10.2979 21.8194C10.4303 21.8194 10.5892 21.8194 10.7216 21.793L22.1352 19.9128C23.5387 19.6744 24.4656 18.3503 24.2272 16.9733L23.168 10.7501ZM7.67621 13.769L22.3735 11.3327L22.5589 12.4449L7.86158 14.8812L7.67621 13.769ZM8.89436 10.9355L20.308 9.05528C20.3874 9.02879 20.4933 9.02879 20.5728 9.02879C21.3937 9.02879 22.0822 9.63787 22.2146 10.4323V10.4588L7.51732 12.8951V12.8686C7.38491 11.9683 7.99399 11.0944 8.89436 10.9355ZM21.9498 19.0389L10.5362 20.9191C9.60937 21.078 8.76195 20.4159 8.60306 19.542L7.9675 15.7551L22.6648 13.3188L23.3269 17.1057C23.4858 18.0061 22.8767 18.88 21.9498 19.0389Z" fill="white"/>
<path d="M12.2306 16.3109L9.37057 16.7876C9.13223 16.8406 8.97334 17.0524 8.99983 17.2908C9.02631 17.5026 9.21168 17.6615 9.42353 17.6615C9.45001 17.6615 9.47649 17.6615 9.50297 17.6615L12.363 17.1848C12.6013 17.1319 12.7602 16.92 12.7337 16.6817C12.6808 16.4169 12.4689 16.258 12.2306 16.3109Z" fill="white"/>
<path d="M15.1434 15.8078L13.528 16.0726C13.2897 16.1256 13.1308 16.3374 13.1573 16.5758C13.1838 16.7876 13.3691 16.9465 13.581 16.9465C13.6075 16.9465 13.634 16.9465 13.6604 16.9465L15.2758 16.6817C15.5142 16.6287 15.6731 16.4169 15.6466 16.1786C15.6201 15.9402 15.3818 15.7813 15.1434 15.8078Z" fill="white"/>
<path d="M20.2005 14.961C19.3796 15.0934 18.8235 15.8879 18.9559 16.7088C19.0883 17.4503 19.6974 17.9799 20.4389 17.9799C20.5183 17.9799 20.5978 17.9799 20.6772 17.9534C21.0744 17.874 21.4187 17.6621 21.657 17.3444C21.8954 17.0266 21.9748 16.6029 21.9218 16.2056C21.7894 15.3847 21.0215 14.8021 20.2005 14.961ZM20.942 16.8147C20.8361 16.9471 20.7037 17.0531 20.5448 17.0795C20.2005 17.1325 19.8827 16.8942 19.8298 16.5764C19.7768 16.2321 20.0152 15.9143 20.3329 15.8614C20.3594 15.8614 20.4124 15.8614 20.4389 15.8614C20.7566 15.8614 20.995 16.0732 21.0479 16.391C21.0744 16.4969 21.0479 16.6823 20.942 16.8147Z" fill="white"/>
<path d="M1.98199 17.3969C3.1207 23.8585 8.76129 28.6252 15.4082 28.6252C22.5053 28.6252 28.3577 23.3024 28.9933 16.2318C29.0197 15.9669 28.8344 15.7286 28.5431 15.7021C28.2783 15.6756 28.0399 15.8875 28.0134 16.1523C27.4308 22.7198 22.0021 27.6718 15.4082 27.6718C9.26444 27.6718 4.02107 23.2494 2.93533 17.2645L4.10052 17.9795C4.33885 18.112 4.63015 18.0325 4.76256 17.8207C4.89497 17.5823 4.842 17.291 4.60367 17.1586L2.29977 15.7551C2.19384 15.6756 2.03495 15.6756 1.90254 15.7021C1.77013 15.7286 1.66421 15.8345 1.61124 15.9669L0.41957 18.3768C0.313643 18.6151 0.393088 18.9064 0.631423 19.0123C0.710868 19.0388 0.763831 19.0653 0.843276 19.0653C1.02865 19.0653 1.18754 18.9594 1.26698 18.8005L1.98199 17.3969Z" fill="white" stroke="white"/>
<path d="M30.132 10.9354C29.8937 10.803 29.6024 10.8559 29.47 11.0943L28.755 12.2594C28.4107 10.5646 27.7487 8.94924 26.7954 7.51923C26.7954 7.51923 26.7954 7.49275 26.7689 7.49275C26.2657 6.72478 25.6831 6.00978 25.0211 5.34774C24.0942 4.42088 23.0614 3.65291 21.9492 3.04383H21.9227C19.9366 1.95808 17.6592 1.37549 15.3818 1.37549C8.36415 1.37549 2.5382 6.64534 1.82319 13.61C1.79671 13.8748 1.98208 14.1132 2.2469 14.1396C2.27338 14.1396 2.27338 14.1396 2.29986 14.1396C2.5382 14.1396 2.75005 13.9543 2.77653 13.7159C3.46505 7.20145 8.89378 2.32883 15.4083 2.32883C17.5533 2.32883 19.6453 2.85846 21.499 3.89124H21.5255C22.5583 4.47384 23.5116 5.18884 24.359 6.03626C24.9152 6.59237 25.4448 7.22793 25.895 7.86349C25.895 7.86349 25.895 7.88997 25.9215 7.88997V7.91646C26.8748 9.31998 27.5104 10.9089 27.8546 12.5772L26.61 11.6504C26.3981 11.4915 26.0803 11.5444 25.9215 11.7563C25.7626 11.9681 25.8155 12.2859 26.0274 12.4448L28.1989 14.0602C28.2783 14.1132 28.3842 14.1661 28.4902 14.1661C28.5167 14.1661 28.5431 14.1661 28.5696 14.1661C28.702 14.1396 28.808 14.0602 28.8874 13.9543L30.2909 11.6504C30.4498 11.3591 30.3704 11.0678 30.132 10.9354Z" fill="white" stroke="white"/>
</svg>
