<svg width="49" height="48" viewBox="0 0 49 48" fill="none" xmlns="http://www.w3.org/2000/svg">
<path d="M48.6528 8.63524L42.6438 6.23024L40.2398 0.220244L37.0938 3.36524C33.3948 1.17024 29.1918 0.000244141 24.8738 0.000244141C11.6408 0.000244141 0.873779 10.7672 0.873779 24.0002C0.873779 37.2332 11.6408 48.0002 24.8738 48.0002C38.1068 48.0002 48.8738 37.2332 48.8738 24.0002C48.8738 19.6822 47.7038 15.4792 45.5088 11.7802L48.6528 8.63524ZM41.1038 7.77024L45.0938 9.36624L42.6318 11.8272L38.6438 10.2302L37.0478 6.24124L39.5088 3.77924L41.1038 7.77024ZM46.8738 24.0002C46.8738 36.1312 37.0048 46.0002 24.8738 46.0002C12.7428 46.0002 2.87378 36.1312 2.87378 24.0002C2.87378 11.8692 12.7428 2.00024 24.8738 2.00024C28.6618 2.00024 32.3588 2.97124 35.6408 4.81824L34.6998 5.75924L36.6998 10.7602L35.4408 12.0192C32.6198 9.52624 28.9258 8.00024 24.8738 8.00024C16.0518 8.00024 8.87378 15.1782 8.87378 24.0002C8.87378 32.8222 16.0518 40.0002 24.8738 40.0002C33.6958 40.0002 40.8738 32.8222 40.8738 24.0002C40.8738 19.9482 39.3478 16.2542 36.8558 13.4322L38.1148 12.1732L43.1158 14.1732L44.0568 13.2322C45.9028 16.5152 46.8738 20.2122 46.8738 24.0002ZM30.8738 24.0002C30.8738 27.3092 28.1828 30.0002 24.8738 30.0002C21.5648 30.0002 18.8738 27.3092 18.8738 24.0002C18.8738 20.6912 21.5648 18.0002 24.8738 18.0002C26.1678 18.0002 27.3638 18.4162 28.3448 19.1152L25.3858 22.0742C25.2208 22.0312 25.0518 22.0002 24.8738 22.0002C23.7698 22.0002 22.8738 22.8952 22.8738 24.0002C22.8738 25.1052 23.7698 26.0002 24.8738 26.0002C25.9778 26.0002 26.8738 25.1052 26.8738 24.0002C26.8738 23.8222 26.8428 23.6532 26.7998 23.4882L29.7588 20.5292C30.4578 21.5102 30.8738 22.7062 30.8738 24.0002ZM29.7718 17.6882C28.4158 16.6342 26.7198 16.0002 24.8738 16.0002C20.4628 16.0002 16.8738 19.5892 16.8738 24.0002C16.8738 28.4112 20.4628 32.0002 24.8738 32.0002C29.2848 32.0002 32.8738 28.4112 32.8738 24.0002C32.8738 22.1542 32.2398 20.4582 31.1858 19.1022L35.4428 14.8452C37.5738 17.3032 38.8738 20.4992 38.8738 24.0002C38.8738 31.7202 32.5938 38.0002 24.8738 38.0002C17.1538 38.0002 10.8738 31.7202 10.8738 24.0002C10.8738 16.2802 17.1538 10.0002 24.8738 10.0002C28.3738 10.0002 31.5708 11.3002 34.0278 13.4322L29.7718 17.6882Z" fill="#009933"/>
</svg>
